<?xml version="1.0" encoding="utf-8"?>
<!-- Generator: Adobe Illustrator 27.0.1, SVG Export Plug-In . SVG Version: 6.00 Build 0)  -->
<svg version="1.1" id="Calque_1" xmlns="http://www.w3.org/2000/svg" xmlns:xlink="http://www.w3.org/1999/xlink" x="0px" y="0px"
	 viewBox="0 0 1133.7 239.5" style="enable-background:new 0 0 1133.7 239.5;" xml:space="preserve">
<style type="text/css">
	.st0{fill:#DB1144;}
	.st1{fill:url(#SVGID_1_);}
	.st2{fill:url(#SVGID_00000059290045964702129260000010355876637549334460_);}
	.st3{fill:#FFFFFF;}
</style>
<g id="Écran_Services">
</g>
<g>
	<path class="st0" d="M353.2,39.5c1.5-0.4,3.1-0.1,4.4,0.7c1.6,1,2.8,2.6,3.2,4.5c0.2,0.8,0.3,1.7,0.3,2.5l1.6,106.4
		c0.1,1.3-0.3,2.5-1.1,3.5c-0.6,0.9-1.5,1.6-2.5,2c-1.1,0.3-2.2,0.3-3.3-0.1c-1.2-0.5-2.3-1.4-3-2.5l-45.4-73.1l1.3,0.1l1.9,85.5
		c0,1.4-0.5,2.7-1.4,3.8c-0.7,0.9-1.6,1.6-2.7,1.9c-1,0.1-2.1,0-3-0.4c-1.2-0.5-2.1-1.3-2.8-2.4l-56.8-90.1
		c-0.5-0.7-0.8-1.5-1.1-2.3c-0.7-1.8-0.5-3.9,0.5-5.6c0.7-1.4,1.9-2.5,3.4-3c1.1-0.3,2.3-0.2,3.3,0.2c1.2,0.5,2.2,1.4,2.9,2.6
		l50.2,80.3l-2,0.6l-2.4-85.8c0-1.3,0.4-2.5,1-3.6c0.6-1,1.5-1.7,2.6-2s2.3-0.3,3.4,0.2c1.2,0.5,2.1,1.4,2.8,2.5l43.8,72.5l-1.5,1.3
		L349,45.2c-0.1-1.3,0.3-2.6,1-3.8C351,40.6,352,39.8,353.2,39.5z"/>
	
		<linearGradient id="SVGID_1_" gradientUnits="userSpaceOnUse" x1="200.9211" y1="597.35" x2="217.7811" y2="597.35" gradientTransform="matrix(1 0 0 1 0 -526)">
		<stop  offset="0.17" style="stop-color:#E52056"/>
		<stop  offset="0.68" style="stop-color:#DF194D"/>
		<stop  offset="1" style="stop-color:#DA1245"/>
	</linearGradient>
	<path class="st1" d="M215.7,79.7H203c-1.2,0-2.1-1-2.1-2.1V65.1c0-1.2,0.9-2.1,2.1-2.1h12.6c1.2,0,2.1,1,2.1,2.1v12.4
		C217.8,78.7,216.8,79.7,215.7,79.7z"/>
	
		<linearGradient id="SVGID_00000108311323039517940890000016476501606112719789_" gradientUnits="userSpaceOnUse" x1="149.9211" y1="577.55" x2="171.0211" y2="577.55" gradientTransform="matrix(1 0 0 1 0 -526)">
		<stop  offset="0.17" style="stop-color:#E52056"/>
		<stop  offset="0.68" style="stop-color:#DF194D"/>
		<stop  offset="1" style="stop-color:#DA1245"/>
	</linearGradient>
	<path style="fill:url(#SVGID_00000108311323039517940890000016476501606112719789_);" d="M168.4,62h-15.9c-1.5,0-2.6-1.2-2.6-2.7
		l0,0V43.8c0-1.5,1.2-2.6,2.6-2.7h15.9c1.5,0,2.6,1.2,2.6,2.7v15.6C171,60.8,169.9,62,168.4,62z"/>
	<path class="st3" d="M120.6,106.6L120.6,106.6L120.6,106.6L120.6,106.6z"/>
	<path class="st3" d="M136.7,110.8c-4.9-2.9-10.5-4.3-16.1-4.2c-8.7,0-16.9,3.9-22.4,10.6c-0.8,0.9-1.5,2-2.1,3V83.3
		c0-1-0.4-1.9-1.1-2.6c-0.8-0.8-1.8-1.2-2.9-1.1c-1.1,0-2.2,0.4-3,1.1s-1.2,1.6-1.2,2.6v85.1c0,1,0.4,2.1,1.2,2.8
		c0.8,0.8,1.9,1.2,3,1.1c1.1,0,2.1-0.4,2.9-1.1c0.7-0.7,1.2-1.7,1.1-2.8v-8.1c0.6,0.8,1.2,1.6,1.8,2.4c1.8,2.1,3.9,3.9,6.2,5.4
		c2.4,1.6,5,2.8,7.8,3.6c2.9,0.9,5.9,1.4,8.9,1.4c5.6,0.1,11.2-1.4,16-4.4c4.8-2.9,8.6-7.1,11.3-12c2.8-5.3,4.2-11.2,4.1-17.1
		c0.1-6-1.3-11.9-4.1-17.2C145.3,117.6,141.4,113.6,136.7,110.8z M141,153.1c-2,3.9-4.9,7.2-8.6,9.6c-3.7,2.4-8.1,3.6-12.5,3.5
		c-4.5,0.1-8.9-1.1-12.7-3.4c-3.7-2.3-6.7-5.6-8.7-9.5c-2.1-4.2-3.2-8.9-3.1-13.6c-0.1-4.7,1-9.3,3.1-13.5c2-3.8,5-7,8.7-9.2
		c3.9-2.3,8.3-3.4,12.7-3.3c8.9-0.3,17.1,4.6,21.1,12.5c2.2,4.2,3.2,8.8,3.2,13.5C144.2,144.4,143.1,149,141,153.1z"/>
	<path class="st3" d="M232.2,138.9c0.8-0.6,1.2-1.6,1.2-2.6c0.1-8.4-3.5-16.5-9.8-22.1c-2.9-2.5-6.2-4.5-9.9-5.8s-7.6-1.9-11.5-1.9
		c-5.3,0-10.6,1.4-15.2,4.1c-4.8,2.8-8.9,6.7-11.7,11.6c-3,5-4.5,11-4.5,18.1c-0.1,6,1.4,12,4.4,17.2c2.9,4.9,7.2,8.9,12.3,11.5
		c5.7,2.9,12,4.3,18.3,4.1c4.9,0,9.7-1.1,14.1-3.3c3.9-1.9,7.5-4.6,10.5-7.8c0.8-0.6,1.3-1.6,1.4-2.6c0-0.9-0.4-1.7-1-2.2
		c-0.7-0.7-1.6-1-2.5-1c-1,0-2,0.4-2.8,1.1c-1.4,1.6-3,3.1-4.8,4.3c-2,1.4-4.3,2.5-6.6,3.3c-2.7,0.9-5.5,1.3-8.3,1.2
		c-5.1,0.2-10.1-1.1-14.6-3.5c-3.9-2.2-7.1-5.5-9.2-9.5c-2.2-4.1-3.3-8.6-3.2-13.2h50.7C230.4,139.9,231.4,139.6,232.2,138.9z
		 M180.8,128.1c1.3-3.1,3.2-5.8,5.6-8.1c2.2-2.1,4.8-3.7,7.7-4.7c2.6-1,5.4-1.5,8.2-1.5c3.5,0,7.1,0.8,10.3,2.2
		c3.2,1.4,6.1,3.6,8.4,6.2c2.4,2.8,3.8,6.3,4,9.9v1h-45.7C179.6,131.4,180.1,129.7,180.8,128.1z"/>
	<path class="st3" d="M439.4,114.2c-2.9-2.5-6.2-4.5-9.9-5.8c-3.7-1.3-7.6-1.9-11.5-1.9c-5.3,0-10.6,1.4-15.2,4.1
		c-4.8,2.8-8.9,6.8-11.7,11.6c-3,5-4.5,11-4.5,18.1c-0.1,6,1.4,12,4.4,17.2c2.9,4.9,7.2,8.9,12.3,11.5c5.7,2.9,12,4.3,18.3,4.1
		c4.9,0,9.7-1.1,14.1-3.3c3.9-1.9,7.5-4.6,10.5-7.8c0.8-0.6,1.3-1.6,1.3-2.6c0-0.9-0.4-1.7-1-2.2c-0.7-0.7-1.6-1-2.5-1
		c-1,0-2,0.4-2.8,1.1c-1.4,1.6-3,3.1-4.8,4.3c-2,1.4-4.3,2.5-6.6,3.3c-2.7,0.9-5.5,1.3-8.3,1.2c-5.1,0.2-10.1-1.1-14.6-3.5
		c-3.9-2.2-7.1-5.5-9.2-9.5c-2.2-4.1-3.3-8.6-3.2-13.2h50.7c1,0,2-0.4,2.8-1.1c0.8-0.6,1.2-1.6,1.2-2.6
		C449.2,127.9,445.6,119.8,439.4,114.2z M440.7,133.2H395c0.4-1.7,0.9-3.4,1.5-5.1c1.3-3.1,3.2-5.8,5.6-8.1c2.2-2.1,4.8-3.7,7.6-4.7
		c2.6-1,5.4-1.5,8.2-1.5c3.6,0,7.1,0.8,10.3,2.2c3.2,1.4,6.1,3.6,8.4,6.2c2.4,2.8,3.8,6.3,4,9.9v1.1H440.7z"/>
	<path class="st3" d="M532.4,122.5c-2.6-4.8-6.5-8.8-11.2-11.7c-4.9-2.9-10.5-4.3-16.2-4.2l0,0c-8.7,0-16.9,3.9-22.5,10.6
		c-0.8,0.9-1.5,2-2.1,3V83.3c0-1-0.4-1.9-1.1-2.6c-0.8-0.8-1.8-1.2-2.9-1.1c-1.1,0-2.2,0.4-3,1.1c-0.7,0.7-1.1,1.6-1.1,2.6v85.1
		c0,1,0.4,2.1,1.2,2.8c0.8,0.7,1.9,1.2,3,1.1c1.1,0,2.1-0.4,2.9-1.1c0.7-0.7,1.2-1.7,1.1-2.8v-8.2c0.6,0.8,1.2,1.7,1.9,2.4
		c1.8,2.1,3.9,3.9,6.2,5.4c2.4,1.6,5,2.8,7.7,3.7c2.9,0.9,5.9,1.4,8.9,1.4c5.6,0.1,11.2-1.4,16-4.4c4.8-2.9,8.6-7.1,11.3-12
		c2.8-5.3,4.2-11.2,4.2-17.1C536.7,133.7,535.3,127.7,532.4,122.5z M525.5,153.1c-2,3.9-4.9,7.2-8.6,9.6c-3.7,2.4-8.1,3.6-12.5,3.5
		c-4.5,0.1-8.9-1.1-12.7-3.4c-3.7-2.3-6.7-5.6-8.7-9.5c-2.1-4.2-3.2-8.9-3.1-13.6c-0.1-4.7,1-9.3,3.1-13.5c2-3.8,5-7,8.7-9.2
		c3.9-2.3,8.3-3.4,12.7-3.3c8.9-0.3,17.1,4.6,21.1,12.5c2.2,4.2,3.2,8.8,3.1,13.5C528.8,144.4,527.7,149,525.5,153.1z"/>
	<g>
		<path class="st3" d="M632.6,95.5c0,0.8-0.3,1.6-0.9,2.5c-0.8,0.9-1.7,1.4-2.9,1.4c-0.7,0-1.4-0.2-2-0.6
			c-6.8-4.5-14.2-6.7-22.3-6.7c-6.9,0-13.1,1.6-18.6,4.8c-5.6,3.2-9.9,7.7-13.1,13.6c-3.2,5.8-4.8,12.4-4.8,19.8
			c0,7.6,1.6,14.2,4.8,20s7.6,10.3,13.2,13.5c5.6,3.2,11.7,4.8,18.5,4.8c8.1,0,15.4-2.2,22.1-6.6c0.7-0.4,1.4-0.6,2.2-0.6
			c1.2,0,2.2,0.5,2.9,1.5c0.6,0.7,0.9,1.5,0.9,2.4c0,1.4-0.6,2.4-1.8,3.1c-3.3,2.2-7.4,4.1-12.2,5.5c-4.8,1.5-9.5,2.2-14.1,2.2
			c-8.1,0-15.5-1.9-22.3-5.8c-6.8-3.9-12.3-9.3-16.3-16.2c-4-7-6-14.9-6-23.8c0-8.6,2-16.3,6-23.3s9.4-12.5,16.2-16.4
			s14.3-5.9,22.5-5.9c4.8,0,9.4,0.7,13.9,2c4.5,1.4,8.6,3.3,12.3,5.7C631.9,93.1,632.6,94.1,632.6,95.5z"/>
		<path class="st3" d="M708.7,110.9c0.7,0.8,1.1,1.7,1.1,2.8V171c0,1.1-0.4,2-1.1,2.7c-0.7,0.7-1.6,1.1-2.7,1.1
			c-1.1,0-2-0.4-2.7-1.1c-0.7-0.7-1.1-1.6-1.1-2.7v-8.5c-2.1,3.8-5.3,7-9.5,9.7c-4.2,2.6-8.9,3.9-13.9,3.9c-5.7,0-10.8-1.5-15.3-4.5
			s-8.1-7-10.7-12.2c-2.6-5.2-3.9-11-3.9-17.4s1.3-12.2,3.9-17.4c2.6-5.1,6.2-9.1,10.8-12c4.5-2.9,9.6-4.3,15.1-4.3
			c5.1,0,9.8,1.2,14,3.7s7.4,5.7,9.5,9.7v-7.9c0-1.1,0.4-2,1.1-2.8c0.7-0.8,1.6-1.1,2.7-1.1C707.1,109.7,708,110.1,708.7,110.9z
			 M691.4,165.4c3.5-2.3,6.3-5.6,8.3-9.7c2-4.1,3-8.7,3-13.8c0-4.9-1-9.4-3-13.5c-2-4.1-4.8-7.3-8.3-9.6c-3.5-2.3-7.5-3.5-11.9-3.5
			s-8.4,1.1-11.9,3.4s-6.3,5.5-8.3,9.5s-3,8.6-3,13.7s1,9.7,2.9,13.8c2,4.1,4.7,7.3,8.2,9.7c3.5,2.3,7.5,3.5,12,3.5
			S687.9,167.7,691.4,165.4z"/>
		<path class="st3" d="M791.7,81.7c0.7,0.7,1.1,1.6,1.1,2.7v86.5c0,1.1-0.4,2-1.1,2.7c-0.7,0.7-1.6,1.1-2.7,1.1
			c-1.1,0-2-0.4-2.7-1.1c-0.7-0.7-1.1-1.6-1.1-2.7V162c-2.1,3.9-5.3,7.2-9.5,9.9s-8.8,4.1-13.9,4.1c-5.6,0-10.7-1.5-15.2-4.4
			s-8.1-7-10.8-12.2c-2.6-5.2-3.9-11-3.9-17.4s1.3-12.1,3.9-17.3c2.6-5.2,6.2-9.2,10.8-12.2c4.5-2.9,9.6-4.4,15.1-4.4
			c5,0,9.6,1.3,13.9,3.8c4.2,2.5,7.5,5.7,9.7,9.7V84.4c0-1.1,0.4-2,1.1-2.7c0.7-0.7,1.6-1.1,2.7-1.1C790.1,80.6,791,81,791.7,81.7z
			 M774.4,165.5c3.5-2.3,6.3-5.5,8.3-9.6s3-8.7,3-13.8c0-5-1-9.5-3-13.6c-2-4.1-4.8-7.3-8.3-9.6c-3.5-2.3-7.5-3.5-11.9-3.5
			s-8.4,1.2-11.9,3.5s-6.3,5.5-8.3,9.6c-2,4.1-3,8.6-3,13.6c0,5.1,1,9.7,3,13.7c2,4.1,4.7,7.3,8.3,9.6c3.5,2.3,7.5,3.5,11.9,3.5
			S770.9,167.8,774.4,165.5z"/>
		<path class="st3" d="M872.9,141.1c-0.8,0.7-1.7,1.1-2.7,1.1h-48.1c0,5.1,1,9.6,3.1,13.7c2.1,4,5,7.2,8.9,9.5s8.4,3.5,13.7,3.5
			c4.1,0,7.7-0.8,10.9-2.5s5.8-3.9,7.8-6.5c0.9-0.8,1.8-1.1,2.7-1.1c0.8,0,1.6,0.3,2.3,1s1,1.4,1,2.3c0,0.9-0.4,1.8-1.3,2.7
			c-2.7,3.3-6.1,6-10.2,8.1c-4.1,2.1-8.5,3.2-13,3.2c-6.5,0-12.3-1.4-17.3-4.2s-8.9-6.7-11.7-11.8c-2.8-5-4.2-10.9-4.2-17.5
			c0-7,1.4-13,4.1-18.3c2.8-5.2,6.4-9.2,11-12s9.5-4.1,14.6-4.1s9.9,1.2,14.3,3.6c4.5,2.4,8.1,5.9,10.9,10.4
			c2.8,4.6,4.2,10,4.3,16.3C874.1,139.5,873.7,140.4,872.9,141.1z M830.9,120.7c-4.2,3.4-6.9,8.3-8.1,14.6h43.4v-1
			c-0.4-3.8-1.7-7.1-3.8-10c-2.1-2.8-4.8-5-8-6.5s-6.5-2.2-9.9-2.2C839.6,115.6,835.1,117.3,830.9,120.7z"/>
		<path class="st3" d="M986.9,116.3c3.6,4.7,5.4,10.9,5.4,18.6v36c0,1.1-0.4,2-1.1,2.7c-0.7,0.7-1.6,1.1-2.7,1.1
			c-1.1,0-2-0.4-2.7-1.1c-0.7-0.7-1.1-1.6-1.1-2.7v-35.6c0-5.6-1.3-10.2-4-13.7s-6.8-5.3-12.4-5.3c-3.6,0-6.9,0.8-10.1,2.5
			c-3.2,1.7-5.7,4-7.7,6.9s-2.9,6.1-2.9,9.5v35.6c0,1.1-0.4,2-1.1,2.7c-0.7,0.7-1.6,1.1-2.7,1.1c-1.1,0-2-0.4-2.7-1.1
			c-0.7-0.7-1.1-1.6-1.1-2.7v-36c0-5.5-1.3-10-3.8-13.4s-6.5-5.2-12-5.2c-3.5,0-6.8,0.8-9.9,2.5c-3.1,1.7-5.6,4-7.5,6.8
			c-1.9,2.8-2.9,5.9-2.9,9.2v36c0,1.1-0.4,2-1.1,2.7c-0.7,0.7-1.6,1.1-2.7,1.1c-1.1,0-2-0.4-2.7-1.1c-0.7-0.7-1.1-1.6-1.1-2.7v-57
			c0-1.1,0.4-2,1.1-2.7c0.7-0.7,1.6-1.1,2.7-1.1c1.1,0,2,0.4,2.7,1.1s1.1,1.6,1.1,2.7v7.4c2.3-3.5,5.4-6.4,9.3-8.7
			c3.9-2.3,8-3.4,12.3-3.4c4.9,0,9.2,1.2,12.7,3.6c3.6,2.4,6.1,5.9,7.6,10.4c1.8-3.7,5-7,9.8-9.8c4.7-2.8,9.5-4.2,14.4-4.2
			C977.6,109.2,983.3,111.6,986.9,116.3z"/>
		<path class="st3" d="M1069.2,109.7c0.7,0.7,1.1,1.6,1.1,2.7v56.1c0,6.7-1.3,12.4-3.9,17.2c-2.6,4.7-6.3,8.4-10.9,10.8
			c-4.7,2.5-9.9,3.7-15.8,3.7c-3.6,0-6.9-0.4-10-1.1c-3.1-0.8-5.7-1.8-7.7-3.1c-1.8-1.1-2.7-2.3-2.7-3.7c0-0.2,0.1-0.6,0.3-1.3
			c0.3-0.8,0.7-1.5,1.3-1.9s1.2-0.6,1.9-0.6c0.5,0,1,0.1,1.5,0.4c5.4,3,10.6,4.5,15.5,4.5c7,0,12.6-2.2,16.7-6.6
			c4.1-4.4,6.2-10.4,6.2-18.1v-4.5c-2.1,3.6-5.2,6.4-9.2,8.6c-4,2.2-8.3,3.2-13,3.2c-7.4,0-13-2.2-16.8-6.6
			c-3.8-4.4-5.7-10.4-5.7-17.9v-39.1c0-1.1,0.4-2,1.1-2.7c0.7-0.7,1.6-1.1,2.7-1.1c1.1,0,2,0.4,2.7,1.1c0.7,0.7,1.1,1.6,1.1,2.7
			v37.9c0,6.1,1.3,10.7,4,13.9c2.7,3.1,6.8,4.7,12.5,4.7c3.5,0,6.8-0.9,10-2.6c3.2-1.7,5.7-4,7.6-6.9c1.9-2.8,2.9-5.9,2.9-9.1v-37.9
			c0-1.1,0.4-2,1.1-2.7s1.6-1.1,2.7-1.1C1067.6,108.6,1068.5,109,1069.2,109.7z"/>
	</g>
</g>
</svg>
